<svg width="127" height="28" viewBox="0 0 127 28" fill="none" xmlns="http://www.w3.org/2000/svg">
<g clip-path="url(#clip0_5004_62071)">
<path d="M13.7364 0V4.57536C13.8341 4.57042 13.9319 4.567 14.0298 4.5651C14.1071 4.56825 14.1844 4.57236 14.2616 4.57741V0H13.7364ZM7.22827 1.74397L6.77073 2.00865L9.06457 5.98285C9.21459 5.89038 9.36716 5.80212 9.52211 5.71818L7.22827 1.74397ZM20.7697 1.74397L18.4923 5.68945C18.6466 5.77478 18.7985 5.86441 18.9478 5.95823L21.2273 2.00865L20.7697 1.74397ZM2.0066 6.77277L1.74398 7.22825L5.71614 9.52209C5.80221 9.36914 5.89252 9.21862 5.98697 9.07071L2.0066 6.77277ZM25.9914 6.77277L22.0603 9.04198C22.152 9.19135 22.2396 9.34324 22.3229 9.49747L26.254 7.22825L25.9914 6.77277ZM0 13.7363V14.2636H4.58358C4.57979 14.1823 4.57706 14.1009 4.57538 14.0195C4.57875 13.925 4.58354 13.8307 4.58974 13.7363H0ZM23.4739 13.7363C23.4788 13.8307 23.4822 13.9251 23.4842 14.0195C23.4812 14.1009 23.477 14.1823 23.4719 14.2636H27.998V13.7363H23.4739ZM5.70588 18.4841L1.74398 20.7717L2.0066 21.2272L5.96645 18.9395C5.8754 18.7902 5.78851 18.6383 5.70588 18.4841ZM22.3455 18.5148C22.2587 18.6678 22.1677 18.8183 22.0726 18.9662L25.9914 21.2272L26.254 20.7717L22.3455 18.5148ZM9.05021 22.0418L6.77073 25.9913L7.22827 26.256L9.50159 22.3187C9.34857 22.2307 9.19805 22.1383 9.05021 22.0418ZM18.9663 22.0725C18.8156 22.165 18.6623 22.2533 18.5067 22.3372L20.7697 26.256L21.2273 25.9914L18.9663 22.0725ZM13.7364 23.4595V28H14.2616V23.4657C14.1844 23.4693 14.1071 23.4721 14.0298 23.4739C13.9319 23.4706 13.8341 23.4658 13.7364 23.4595Z" stroke="url(#paint0_linear_5004_62071)" stroke-width="0.878861" stroke-linecap="round"/>
<path d="M14.0135 6.52881C12.1704 6.53139 10.392 7.20882 9.01428 8.43315C7.63657 9.65747 6.7549 11.3439 6.5358 13.174H9.06841C9.27841 12.0153 9.88845 10.9671 10.7922 10.2121C11.6959 9.4571 12.8359 9.04329 14.0135 9.04278C15.1913 9.04288 16.3318 9.45652 17.2359 10.2115C18.1399 10.9665 18.7502 12.015 18.9603 13.174H21.4912C21.2721 11.3439 20.3904 9.65747 19.0127 8.43315C17.635 7.20882 15.8566 6.53139 14.0135 6.52881ZM6.52869 14.8667C6.72503 16.7161 7.5978 18.4277 8.97932 19.6728C10.3608 20.9178 12.1537 21.6085 14.0135 21.6122C15.8733 21.6085 17.6661 20.9178 19.0476 19.6728C20.4292 18.4277 21.3019 16.7161 21.4983 14.8667H18.9757C18.7864 16.0467 18.183 17.1207 17.2737 17.8961C16.3644 18.6715 15.2085 19.0977 14.0135 19.0982C12.8191 19.0967 11.6643 18.6701 10.7558 17.8947C9.84737 17.1194 9.24458 16.046 9.05541 14.8667H6.52869Z" fill="url(#paint1_linear_5004_62071)"/>
<path d="M34.6579 19.5244V9.13481H38.8571C38.9581 9.13481 39.0831 9.13962 39.2322 9.14924C39.3813 9.15405 39.5232 9.16848 39.6579 9.19253C40.2351 9.28392 40.7161 9.48113 41.1009 9.78416C41.4905 10.0872 41.7815 10.4696 41.9739 10.9313C42.1663 11.3931 42.2625 11.903 42.2625 12.4609C42.2625 13.0237 42.1663 13.536 41.9739 13.9977C41.7815 14.4595 41.4905 14.8419 41.1009 15.1449C40.7161 15.4479 40.2351 15.6451 39.6579 15.7365C39.5232 15.7558 39.3789 15.7702 39.225 15.7798C39.0759 15.7894 38.9533 15.7943 38.8571 15.7943H36.1659V19.5244H34.6579ZM36.1659 14.3657H38.7993C38.8955 14.3657 39.0014 14.3609 39.1168 14.3513C39.237 14.3416 39.3501 14.3248 39.4559 14.3008C39.7637 14.2286 40.0115 14.0963 40.199 13.9039C40.3866 13.7067 40.5213 13.4806 40.6031 13.2257C40.6849 12.9708 40.7257 12.7159 40.7257 12.4609C40.7257 12.206 40.6849 11.9535 40.6031 11.7034C40.5213 11.4484 40.3866 11.2248 40.199 11.0324C40.0115 10.8351 39.7637 10.7005 39.4559 10.6283C39.3501 10.5995 39.237 10.5802 39.1168 10.5706C39.0014 10.561 38.8955 10.5562 38.7993 10.5562H36.1659V14.3657ZM43.7049 19.5244V9.13481H47.904C48.005 9.13481 48.1301 9.13962 48.2792 9.14924C48.4283 9.15405 48.5702 9.16848 48.7049 9.19253C49.2821 9.28392 49.7631 9.48113 50.1479 9.78416C50.5375 10.0872 50.8285 10.4696 51.0209 10.9313C51.2133 11.3931 51.3095 11.903 51.3095 12.4609C51.3095 13.2882 51.0978 14.0025 50.6746 14.6038C50.2513 15.2002 49.6164 15.573 48.7698 15.7221L48.1565 15.7943H45.2128V19.5244H43.7049ZM49.7799 19.5244L47.7308 15.2964L49.2532 14.9068L51.5043 19.5244H49.7799ZM45.2128 14.3657H47.8463C47.9425 14.3657 48.0483 14.3609 48.1637 14.3513C48.284 14.3416 48.397 14.3248 48.5028 14.3008C48.8107 14.2286 49.0584 14.0963 49.246 13.9039C49.4336 13.7067 49.5683 13.4806 49.65 13.2257C49.7318 12.9708 49.7727 12.7159 49.7727 12.4609C49.7727 12.206 49.7318 11.9535 49.65 11.7034C49.5683 11.4484 49.4336 11.2248 49.246 11.0324C49.0584 10.8351 48.8107 10.7005 48.5028 10.6283C48.397 10.5995 48.284 10.5802 48.1637 10.5706C48.0483 10.561 47.9425 10.5562 47.8463 10.5562H45.2128V14.3657ZM53.2343 19.5244V9.13481H54.7422V19.5244H53.2343ZM59.3475 19.5244L55.9709 9.13481H57.5366L60.4154 18.002L63.3302 9.13481H64.8959L61.5193 19.5244H59.3475ZM64.2479 19.5244L67.6245 9.13481H69.7962L73.1728 19.5244H71.6072L68.4975 10.0439H68.8871L65.8135 19.5244H64.2479ZM66.0011 17.1795V15.7654H71.4268V17.1795H66.0011ZM78.5216 19.7409C77.4827 19.7409 76.5976 19.5148 75.8665 19.0627C75.1354 18.6057 74.575 17.9708 74.1854 17.1579C73.8006 16.345 73.6082 15.4022 73.6082 14.3296C73.6082 13.257 73.8006 12.3142 74.1854 11.5013C74.575 10.6884 75.1354 10.0559 75.8665 9.60379C76.5976 9.14684 77.4827 8.91836 78.5216 8.91836C79.7193 8.91836 80.7102 9.22139 81.4942 9.82745C82.2831 10.4335 82.8314 11.2488 83.1392 12.2733L81.6097 12.6846C81.4076 11.9583 81.0469 11.3883 80.5274 10.9746C80.0127 10.561 79.3441 10.3541 78.5216 10.3541C77.7857 10.3541 77.1724 10.5201 76.6818 10.852C76.1912 11.1839 75.8208 11.648 75.5707 12.2445C75.3254 12.8409 75.2027 13.536 75.2027 14.3296C75.1979 15.1233 75.3182 15.8183 75.5635 16.4147C75.8136 17.0112 76.184 17.4754 76.6746 17.8072C77.17 18.1391 77.7857 18.3051 78.5216 18.3051C79.3441 18.3051 80.0127 18.0982 80.5274 17.6846C81.0469 17.2661 81.4076 16.6961 81.6097 15.9746L83.1392 16.3859C82.8314 17.4104 82.2831 18.2257 81.4942 18.8318C80.7102 19.4378 79.7193 19.7409 78.5216 19.7409ZM86.7928 19.5244V15.2315L83.2791 9.13481H85.0396L87.5576 13.4999L90.0757 9.13481H91.8361L88.3224 15.2315V19.5244H86.7928ZM96.1723 19.7409C95.4268 19.7409 94.7534 19.6134 94.1521 19.3585C93.5557 19.0987 93.0627 18.7308 92.6731 18.2546C92.2883 17.7736 92.0381 17.2036 91.9227 16.5446L93.4956 16.3065C93.6543 16.9414 93.9862 17.4369 94.4912 17.7928C94.9963 18.1439 95.5855 18.3195 96.2589 18.3195C96.6774 18.3195 97.0622 18.2546 97.4133 18.1247C97.7645 17.99 98.0458 17.8 98.2575 17.5547C98.4739 17.3046 98.5822 17.0064 98.5822 16.6601C98.5822 16.4725 98.5485 16.3065 98.4811 16.1622C98.4186 16.0179 98.3296 15.8929 98.2142 15.787C98.1036 15.6764 97.9665 15.5826 97.8029 15.5057C97.6442 15.4239 97.4686 15.3541 97.2762 15.2964L94.6139 14.51C94.3542 14.433 94.0896 14.3344 93.8203 14.2142C93.5509 14.0891 93.3032 13.928 93.0771 13.7308C92.8558 13.5287 92.6755 13.281 92.536 12.9876C92.3965 12.6894 92.3267 12.3287 92.3267 11.9054C92.3267 11.2656 92.4903 10.7245 92.8174 10.282C93.1493 9.83467 93.5966 9.49797 94.1594 9.2719C94.7221 9.04102 95.3522 8.92558 96.0497 8.92558C96.7519 8.9352 97.3797 9.06026 97.9328 9.30076C98.4908 9.54126 98.9525 9.88758 99.3181 10.3397C99.6885 10.787 99.9434 11.3306 100.083 11.9703L98.4667 12.2445C98.3946 11.8549 98.2406 11.5206 98.005 11.2416C97.7693 10.9578 97.4807 10.7414 97.1392 10.5922C96.7976 10.4383 96.4273 10.359 96.028 10.3541C95.6432 10.3445 95.2897 10.4022 94.9674 10.5273C94.65 10.6524 94.395 10.8279 94.2026 11.054C94.0151 11.2801 93.9213 11.5398 93.9213 11.8332C93.9213 12.1218 94.0054 12.3551 94.1738 12.5331C94.3421 12.711 94.549 12.8529 94.7943 12.9588C95.0444 13.0598 95.2921 13.1439 95.5374 13.2113L97.4566 13.7524C97.6971 13.8198 97.9689 13.9111 98.2719 14.0266C98.5797 14.1372 98.8756 14.2935 99.1594 14.4956C99.448 14.6976 99.686 14.9669 99.8736 15.3036C100.061 15.6355 100.155 16.054 100.155 16.559C100.155 17.0833 100.049 17.5451 99.8376 17.9443C99.6259 18.3387 99.3349 18.6706 98.9645 18.94C98.599 19.2045 98.1757 19.4042 97.6947 19.5388C97.2137 19.6735 96.7063 19.7409 96.1723 19.7409ZM100.971 19.5244L104.348 9.13481H106.519L109.896 19.5244H108.33L105.221 10.0439H105.61L102.537 19.5244H100.971ZM102.724 17.1795V15.7654H108.15V17.1795H102.724ZM111.19 19.5244V9.13481H117.345V10.6427H112.698V13.572H116.479V15.0872H112.698V19.5244H111.19ZM118.645 19.5244V9.13481H125.283V10.5562H120.153V13.471H124.417V14.8924H120.153V18.1031H125.283V19.5244H118.645Z" fill="url(#paint2_linear_5004_62071)"/>
</g>
<defs>
<linearGradient id="paint0_linear_5004_62071" x1="-0.468753" y1="14" x2="28.4668" y2="14" gradientUnits="userSpaceOnUse">
<stop stop-color="#3771C8"/>
<stop offset="1" stop-color="#2CA089"/>
</linearGradient>
<linearGradient id="paint1_linear_5004_62071" x1="6.47173" y1="14.0705" x2="21.5551" y2="14.0705" gradientUnits="userSpaceOnUse">
<stop stop-color="#EF2008"/>
<stop offset="1" stop-color="#FF6428"/>
</linearGradient>
<linearGradient id="paint2_linear_5004_62071" x1="33.294" y1="13.5244" x2="127.001" y2="13.5244" gradientUnits="userSpaceOnUse">
<stop stop-color="#EF2008"/>
<stop offset="1" stop-color="#FF6428"/>
</linearGradient>
<clipPath id="clip0_5004_62071">
<rect width="126.648" height="28" fill="white"/>
</clipPath>
</defs>
</svg>
