<svg width="1231" height="269" viewBox="0 0 1231 269" fill="none" xmlns="http://www.w3.org/2000/svg">
<path d="M314.752 85.719C327.766 85.719 337.749 88.2147 344.701 93.2063C351.743 98.1088 355.264 105.462 355.264 115.267C355.264 120.615 354.284 125.206 352.323 129.039C350.451 132.782 347.687 135.858 344.033 138.264C340.468 140.582 336.1 142.275 330.93 143.345C325.76 144.415 319.922 144.949 313.415 144.949H303.12V179.311H290.151V87.9919C293.805 87.1006 297.861 86.5212 302.318 86.2538C306.864 85.8972 311.008 85.719 314.752 85.719ZM315.822 97.0837C310.295 97.0837 306.061 97.2174 303.12 97.4848V133.852H312.88C317.337 133.852 321.348 133.585 324.913 133.05C328.479 132.426 331.465 131.445 333.872 130.108C336.367 128.682 338.284 126.766 339.621 124.359C340.958 121.952 341.626 118.877 341.626 115.134C341.626 111.568 340.913 108.627 339.487 106.309C338.15 103.992 336.278 102.164 333.872 100.827C331.554 99.4012 328.835 98.4207 325.716 97.8859C322.596 97.3511 319.298 97.0837 315.822 97.0837Z" fill="url(#paint0_linear_6378_92654)"/>
<path d="M416.821 140.537C418.247 142.32 420.03 144.682 422.169 147.623C424.397 150.476 426.67 153.685 428.988 157.25C431.305 160.726 433.578 164.381 435.806 168.214C438.124 172.047 440.085 175.746 441.689 179.311H427.517C425.734 175.924 423.773 172.492 421.634 169.016C419.584 165.54 417.489 162.242 415.35 159.122C413.211 155.913 411.071 152.927 408.932 150.164C406.882 147.401 405.01 144.994 403.317 142.944C402.158 143.033 400.955 143.078 399.707 143.078C398.548 143.078 397.345 143.078 396.097 143.078H384.465V179.311H371.495V87.9919C375.15 87.1006 379.206 86.5212 383.662 86.2538C388.208 85.8972 392.353 85.719 396.097 85.719C409.11 85.719 419.004 88.1702 425.779 93.0726C432.642 97.9751 436.074 105.284 436.074 115C436.074 121.15 434.425 126.409 431.127 130.777C427.918 135.145 423.149 138.398 416.821 140.537ZM397.166 97.0837C391.64 97.0837 387.406 97.2174 384.465 97.4848V132.381H393.69C398.147 132.381 402.158 132.158 405.723 131.713C409.289 131.267 412.275 130.42 414.681 129.172C417.177 127.925 419.094 126.186 420.431 123.958C421.768 121.64 422.436 118.61 422.436 114.866C422.436 111.39 421.768 108.493 420.431 106.176C419.094 103.858 417.266 102.031 414.949 100.694C412.72 99.3567 410.046 98.4207 406.927 97.8859C403.896 97.3511 400.643 97.0837 397.166 97.0837Z" fill="url(#paint1_linear_6378_92654)"/>
<path d="M455.582 86.6549H468.551V179.311H455.582V86.6549Z" fill="url(#paint2_linear_6378_92654)"/>
<path d="M566.362 86.6549C562.975 96.4598 559.722 105.552 556.602 113.93C553.571 122.22 550.585 130.108 547.644 137.596C544.702 145.083 541.761 152.258 538.819 159.122C535.967 165.896 533.026 172.626 529.995 179.311H517.828C514.797 172.626 511.811 165.896 508.87 159.122C506.018 152.258 503.076 145.083 500.046 137.596C497.104 130.108 494.073 122.22 490.954 113.93C487.834 105.552 484.625 96.4598 481.327 86.6549H495.633C500.447 100.738 505.171 114.287 509.806 127.301C514.441 140.314 519.21 152.526 524.112 163.935C529.015 152.615 533.783 140.448 538.418 127.434C543.053 114.331 547.733 100.738 552.457 86.6549H566.362Z" fill="url(#paint3_linear_6378_92654)"/>
<path d="M632.91 179.311C631.394 175.3 629.968 171.378 628.631 167.545C627.294 163.623 625.913 159.657 624.486 155.646H582.504L574.08 179.311H560.576C564.142 169.506 567.484 160.459 570.604 152.169C573.724 143.791 576.755 135.858 579.696 128.37C582.727 120.883 585.713 113.752 588.654 106.978C591.596 100.114 594.671 93.34 597.88 86.6549H609.779C612.988 93.34 616.063 100.114 619.005 106.978C621.946 113.752 624.888 120.883 627.829 128.37C630.86 135.858 633.935 143.791 637.055 152.169C640.174 160.459 643.517 169.506 647.082 179.311H632.91ZM620.743 144.949C617.89 137.195 615.038 129.707 612.186 122.487C609.423 115.178 606.526 108.181 603.495 101.496C600.375 108.181 597.389 115.178 594.537 122.487C591.774 129.707 589.011 137.195 586.247 144.949H620.743Z" fill="url(#paint4_linear_6378_92654)"/>
<path d="M697.025 181.317C690.518 181.317 684.59 180.247 679.242 178.108C673.894 175.968 669.303 172.849 665.471 168.749C661.638 164.648 658.652 159.612 656.513 153.64C654.462 147.579 653.437 140.671 653.437 132.916C653.437 125.161 654.596 118.298 656.914 112.326C659.32 106.265 662.529 101.184 666.54 97.0837C670.551 92.9835 675.231 89.8637 680.579 87.7245C685.927 85.5852 691.632 84.5156 697.693 84.5156C701.526 84.5156 704.958 84.783 707.988 85.3178C711.108 85.8527 713.782 86.4766 716.01 87.1897C718.328 87.9028 720.2 88.6159 721.626 89.3289C723.052 90.042 724.033 90.5768 724.567 90.9334L720.824 101.63C720.021 101.095 718.863 100.515 717.347 99.8915C715.832 99.2675 714.094 98.6436 712.133 98.0196C710.261 97.3957 708.166 96.9054 705.849 96.5489C703.621 96.1032 701.348 95.8804 699.03 95.8804C694.128 95.8804 689.715 96.7272 685.793 98.4207C681.872 100.114 678.529 102.566 675.766 105.774C673.003 108.983 670.863 112.905 669.348 117.54C667.922 122.086 667.209 127.211 667.209 132.916C667.209 138.443 667.833 143.479 669.081 148.025C670.418 152.57 672.379 156.492 674.964 159.79C677.548 162.999 680.757 165.495 684.59 167.278C688.512 169.061 693.058 169.952 698.228 169.952C704.2 169.952 709.147 169.328 713.069 168.08C716.991 166.832 719.932 165.718 721.893 164.737L725.236 175.434C724.612 175.879 723.498 176.459 721.893 177.172C720.289 177.796 718.283 178.42 715.877 179.044C713.47 179.668 710.662 180.202 707.453 180.648C704.244 181.094 700.768 181.317 697.025 181.317Z" fill="url(#paint5_linear_6378_92654)"/>
<path d="M764.373 179.311V142.142C758.223 132.604 752.429 123.2 746.992 113.93C741.555 104.66 736.429 95.5684 731.616 86.6549H746.858C750.245 93.964 754.034 101.407 758.223 108.983C762.412 116.471 766.735 123.691 771.192 130.643C775.56 123.691 779.838 116.471 784.028 108.983C788.217 101.407 792.05 93.964 795.526 86.6549H809.966C805.153 95.5684 800.027 104.66 794.59 113.93C789.153 123.111 783.404 132.426 777.342 141.874V179.311H764.373Z" fill="url(#paint6_linear_6378_92654)"/>
<path d="M843.747 170.086C857.295 170.086 864.07 165.451 864.07 156.18C864.07 153.328 863.446 150.921 862.198 148.96C861.039 146.91 859.435 145.172 857.385 143.746C855.334 142.231 852.972 140.938 850.298 139.869C847.713 138.799 844.95 137.729 842.009 136.66C838.622 135.501 835.413 134.209 832.382 132.782C829.352 131.267 826.722 129.529 824.494 127.568C822.265 125.518 820.483 123.111 819.146 120.348C817.898 117.585 817.274 114.242 817.274 110.32C817.274 102.209 820.037 95.8804 825.563 91.3345C831.09 86.7886 838.711 84.5156 848.427 84.5156C854.042 84.5156 859.123 85.1396 863.669 86.3875C868.304 87.5462 871.691 88.8387 873.83 90.2649L869.685 100.827C867.813 99.6686 865.006 98.5544 861.262 97.4848C857.607 96.3261 853.329 95.7467 848.427 95.7467C845.931 95.7467 843.613 96.0141 841.474 96.5489C839.335 97.0837 837.463 97.8859 835.858 98.9556C834.254 100.025 832.962 101.407 831.981 103.1C831.09 104.705 830.644 106.621 830.644 108.85C830.644 111.345 831.134 113.44 832.115 115.134C833.095 116.827 834.477 118.342 836.26 119.68C838.042 120.927 840.092 122.086 842.41 123.156C844.817 124.225 847.446 125.295 850.298 126.365C854.309 127.969 857.964 129.574 861.262 131.178C864.649 132.782 867.546 134.699 869.953 136.927C872.448 139.156 874.365 141.83 875.702 144.949C877.039 147.98 877.707 151.679 877.707 156.047C877.707 164.158 874.721 170.398 868.749 174.765C862.866 179.133 854.532 181.317 843.747 181.317C840.092 181.317 836.705 181.049 833.585 180.514C830.555 180.069 827.836 179.534 825.43 178.91C823.023 178.197 820.928 177.484 819.146 176.771C817.452 175.968 816.115 175.3 815.134 174.765L819.012 164.069C821.062 165.228 824.182 166.52 828.371 167.946C832.56 169.372 837.686 170.086 843.747 170.086Z" fill="url(#paint7_linear_6378_92654)"/>
<path d="M955.285 179.311C953.77 175.3 952.344 171.378 951.007 167.545C949.67 163.623 948.288 159.657 946.862 155.646H904.879L896.456 179.311H882.952C886.518 169.506 889.86 160.459 892.98 152.169C896.1 143.791 899.13 135.858 902.072 128.37C905.102 120.883 908.088 113.752 911.03 106.978C913.971 100.114 917.046 93.34 920.255 86.6549H932.155C935.364 93.34 938.439 100.114 941.38 106.978C944.322 113.752 947.263 120.883 950.205 128.37C953.235 135.858 956.311 143.791 959.43 152.169C962.55 160.459 965.893 169.506 969.458 179.311H955.285ZM943.119 144.949C940.266 137.195 937.414 129.707 934.562 122.487C931.798 115.178 928.901 108.181 925.871 101.496C922.751 108.181 919.765 115.178 916.913 122.487C914.15 129.707 911.386 137.195 908.623 144.949H943.119Z" fill="url(#paint8_linear_6378_92654)"/>
<path d="M982.038 179.311V86.6549H1037.93V97.7522H995.007V125.696H1033.11V136.66H995.007V179.311H982.038Z" fill="url(#paint9_linear_6378_92654)"/>
<path d="M1053.85 179.311V86.6549H1110.41V97.7522H1066.82V125.295H1105.59V136.125H1066.82V168.214H1113.75V179.311H1053.85Z" fill="url(#paint10_linear_6378_92654)"/>
<path d="M1170.78 95.3216C1170.78 98.9482 1170.18 102.212 1168.98 105.114C1167.79 107.972 1166.19 110.404 1164.18 112.41C1162.18 114.372 1159.85 115.887 1157.21 116.954C1154.56 117.978 1151.79 118.49 1148.89 118.49C1145.99 118.49 1143.21 117.978 1140.57 116.954C1137.92 115.887 1135.6 114.372 1133.59 112.41C1131.59 110.404 1129.99 107.972 1128.79 105.114C1127.6 102.212 1127 98.9482 1127 95.3216C1127 91.6949 1127.6 88.4522 1128.79 85.5936C1129.99 82.6922 1131.59 80.2602 1133.59 78.2976C1135.6 76.2922 1137.92 74.7776 1140.57 73.7536C1143.21 72.6869 1145.99 72.1536 1148.89 72.1536C1151.79 72.1536 1154.56 72.6869 1157.21 73.7536C1159.85 74.7776 1162.18 76.2922 1164.18 78.2976C1166.19 80.2602 1167.79 82.6922 1168.98 85.5936C1170.18 88.4522 1170.78 91.6949 1170.78 95.3216ZM1166.1 95.3216C1166.1 92.5056 1165.68 89.9456 1164.82 87.6416C1163.97 85.2949 1162.78 83.2896 1161.24 81.6256C1159.75 79.9616 1157.93 78.6816 1155.8 77.7856C1153.71 76.8896 1151.4 76.4416 1148.89 76.4416C1146.37 76.4416 1144.04 76.8896 1141.91 77.7856C1139.82 78.6816 1138.01 79.9616 1136.47 81.6256C1134.98 83.2896 1133.8 85.2949 1132.95 87.6416C1132.1 89.9456 1131.67 92.5056 1131.67 95.3216C1131.67 98.1376 1132.1 100.719 1132.95 103.066C1133.8 105.37 1134.98 107.354 1136.47 109.018C1138.01 110.682 1139.82 111.962 1141.91 112.858C1144.04 113.754 1146.37 114.202 1148.89 114.202C1151.4 114.202 1153.71 113.754 1155.8 112.858C1157.93 111.962 1159.75 110.682 1161.24 109.018C1162.78 107.354 1163.97 105.37 1164.82 103.066C1165.68 100.719 1166.1 98.1376 1166.1 95.3216ZM1155.22 108.058C1154.24 106.138 1153.13 104.324 1151.9 102.618C1150.7 100.868 1149.66 99.4816 1148.76 98.4576H1144.47V108.058H1139.93V83.2256C1141.08 82.9696 1142.3 82.7776 1143.58 82.6496C1144.86 82.5216 1146.03 82.4576 1147.1 82.4576C1150.76 82.4576 1153.56 83.1402 1155.48 84.5056C1157.4 85.8709 1158.36 87.9402 1158.36 90.7136C1158.36 92.2922 1157.93 93.6789 1157.08 94.8736C1156.27 96.0256 1155.1 96.9216 1153.56 97.5616C1153.99 98.0736 1154.48 98.7136 1155.03 99.4816C1155.59 100.25 1156.16 101.103 1156.76 102.042C1157.36 102.98 1157.95 103.962 1158.55 104.986C1159.15 106.01 1159.68 107.034 1160.15 108.058H1155.22ZM1144.47 94.7456H1146.9C1148.82 94.7456 1150.42 94.4896 1151.7 93.9776C1152.98 93.4229 1153.62 92.3136 1153.62 90.6496C1153.62 89.0709 1153 87.9829 1151.77 87.3856C1150.57 86.7456 1149.12 86.4256 1147.42 86.4256C1146.95 86.4256 1146.46 86.4469 1145.94 86.4896C1145.43 86.4896 1144.94 86.5109 1144.47 86.5536V94.7456Z" fill="url(#paint11_linear_6378_92654)"/>
<path d="M150.053 33.5193C107.439 33.6035 72.5017 67.3346 70.9207 109.92H106.837C108.603 85.4197 127.556 66.4905 150.383 66.4275C173.211 66.4894 192.166 85.4189 193.932 109.92H229.327C227.744 67.2803 192.722 33.528 150.053 33.5193Z" fill="url(#paint12_linear_6378_92654)"/>
<path d="M56.2097 117.66V139.123H241.737V117.66H56.2097ZM56.2097 146.863V168.131H241.737V146.863H56.2097ZM80.2273 175.871C93.5811 200.886 119.866 217.86 150.053 217.92C180.294 217.914 206.646 200.928 220.022 175.871H80.2273Z" fill="url(#paint13_linear_6378_92654)"/>
<defs>
<linearGradient id="paint0_linear_6378_92654" x1="289.053" y1="185.047" x2="1114.12" y2="185.047" gradientUnits="userSpaceOnUse">
<stop stop-color="#EF2008"/>
<stop offset="1" stop-color="#FF6428"/>
</linearGradient>
<linearGradient id="paint1_linear_6378_92654" x1="289.053" y1="185.047" x2="1114.12" y2="185.047" gradientUnits="userSpaceOnUse">
<stop stop-color="#EF2008"/>
<stop offset="1" stop-color="#FF6428"/>
</linearGradient>
<linearGradient id="paint2_linear_6378_92654" x1="289.053" y1="185.047" x2="1114.12" y2="185.047" gradientUnits="userSpaceOnUse">
<stop stop-color="#EF2008"/>
<stop offset="1" stop-color="#FF6428"/>
</linearGradient>
<linearGradient id="paint3_linear_6378_92654" x1="289.053" y1="185.047" x2="1114.12" y2="185.047" gradientUnits="userSpaceOnUse">
<stop stop-color="#EF2008"/>
<stop offset="1" stop-color="#FF6428"/>
</linearGradient>
<linearGradient id="paint4_linear_6378_92654" x1="289.053" y1="185.047" x2="1114.12" y2="185.047" gradientUnits="userSpaceOnUse">
<stop stop-color="#EF2008"/>
<stop offset="1" stop-color="#FF6428"/>
</linearGradient>
<linearGradient id="paint5_linear_6378_92654" x1="289.053" y1="185.047" x2="1114.12" y2="185.047" gradientUnits="userSpaceOnUse">
<stop stop-color="#EF2008"/>
<stop offset="1" stop-color="#FF6428"/>
</linearGradient>
<linearGradient id="paint6_linear_6378_92654" x1="289.053" y1="185.047" x2="1114.12" y2="185.047" gradientUnits="userSpaceOnUse">
<stop stop-color="#EF2008"/>
<stop offset="1" stop-color="#FF6428"/>
</linearGradient>
<linearGradient id="paint7_linear_6378_92654" x1="289.053" y1="185.047" x2="1114.12" y2="185.047" gradientUnits="userSpaceOnUse">
<stop stop-color="#EF2008"/>
<stop offset="1" stop-color="#FF6428"/>
</linearGradient>
<linearGradient id="paint8_linear_6378_92654" x1="289.053" y1="185.047" x2="1114.12" y2="185.047" gradientUnits="userSpaceOnUse">
<stop stop-color="#EF2008"/>
<stop offset="1" stop-color="#FF6428"/>
</linearGradient>
<linearGradient id="paint9_linear_6378_92654" x1="289.053" y1="185.047" x2="1114.12" y2="185.047" gradientUnits="userSpaceOnUse">
<stop stop-color="#EF2008"/>
<stop offset="1" stop-color="#FF6428"/>
</linearGradient>
<linearGradient id="paint10_linear_6378_92654" x1="289.053" y1="185.047" x2="1114.12" y2="185.047" gradientUnits="userSpaceOnUse">
<stop stop-color="#EF2008"/>
<stop offset="1" stop-color="#FF6428"/>
</linearGradient>
<linearGradient id="paint11_linear_6378_92654" x1="1126.94" y1="120.275" x2="1170.79" y2="120.275" gradientUnits="userSpaceOnUse">
<stop stop-color="#EF2008"/>
<stop offset="1" stop-color="#FF6428"/>
</linearGradient>
<linearGradient id="paint12_linear_6378_92654" x1="70.7094" y1="112.864" x2="229.398" y2="112.864" gradientUnits="userSpaceOnUse">
<stop stop-color="#EF2008"/>
<stop offset="1" stop-color="#FF6428"/>
</linearGradient>
<linearGradient id="paint13_linear_6378_92654" x1="56.2098" y1="167.79" x2="241.737" y2="167.79" gradientUnits="userSpaceOnUse">
<stop stop-color="#3771C8"/>
<stop offset="1" stop-color="#2CA089"/>
</linearGradient>
</defs>
</svg>
